<?xml version="1.0" encoding="UTF-8"?>
<svg width="512px" height="512px" viewBox="0 0 512 512" version="1.1" xmlns="http://www.w3.org/2000/svg" xmlns:xlink="http://www.w3.org/1999/xlink">
    <title>512x512@1x</title>
    <g id="512x512" stroke="none" stroke-width="1" fill="none" fill-rule="evenodd">
        <rect fill="#000000" x="0" y="0" width="512" height="512"></rect>
        <g id="logo" transform="translate(64.000000, 82.000000)" stroke="#FFFFFF" stroke-linecap="round" stroke-linejoin="round" stroke-width="25">
            <path d="M230.400092,155.709501 C230.400092,176.949323 213.207836,194.167601 192.000115,194.167601 C170.792393,194.167601 153.600138,176.949323 153.600138,155.709501 C153.600138,113.229857 187.984648,78.7933018 230.400092,78.7933018 C272.815535,78.7933018 307.200046,113.229857 307.200046,155.709501 C307.200046,219.428967 255.62328,271.083801 192.000115,271.083801 C128.376949,271.083801 76.8001834,219.428967 76.8001834,155.709501 C76.8001834,70.7502133 145.569205,1.87710236 230.400092,1.87710236 C315.230979,1.87710236 384,70.7502133 384,155.709501 C384,261.908611 298.038723,348 192.000115,348 C85.961506,348 0,261.908611 0,155.709501 C-0.0705516055,105.590806 16.2491099,56.8278712 46.4642015,16.8757613 C54.4809074,5.03476331 68.3978853,-1.37087288 82.5909105,0.247542408 C96.7839358,1.86595769 108.906906,11.240901 114.060604,24.5837058 C119.214302,37.9265105 116.546822,53.0316159 107.136165,63.7946429" id="Path"></path>
        </g>
    </g>
</svg>